<?xml version="1.0" encoding="utf-8" standalone="no"?>
<!DOCTYPE svg PUBLIC "-//W3C//DTD SVG 1.1//EN"
  "http://www.w3.org/Graphics/SVG/1.1/DTD/svg11.dtd">
<svg xmlns:xlink="http://www.w3.org/1999/xlink" width="446.913625pt" height="243.29275pt" viewBox="0 0 446.913625 243.29275" xmlns="http://www.w3.org/2000/svg" version="1.1">
 <metadata>
  <rdf:RDF xmlns:dc="http://purl.org/dc/elements/1.1/" xmlns:cc="http://creativecommons.org/ns#" xmlns:rdf="http://www.w3.org/1999/02/22-rdf-syntax-ns#">
   <cc:Work>
    <dc:type rdf:resource="http://purl.org/dc/dcmitype/StillImage"/>
    <dc:date>2026-09-16T17:19:47.064782</dc:date>
    <dc:format>image/svg+xml</dc:format>
    <dc:creator>
     <cc:Agent>
      <dc:title>Matplotlib v3.10.5, https://matplotlib.org/</dc:title>
     </cc:Agent>
    </dc:creator>
   </cc:Work>
  </rdf:RDF>
 </metadata>
 <defs>
  <style type="text/css">*{stroke-linejoin: round; stroke-linecap: butt}</style>
 </defs>
 <g id="figure_1">
  <g id="patch_1">
   <path d="M 0 243.29275 
L 446.913625 243.29275 
L 446.913625 0 
L 0 0 
z
" style="fill: #ffffff"/>
  </g>
  <g id="axes_1">
   <g id="patch_2">
    <path d="M 41.223125 220.382437 
L 348.123125 220.382437 
L 348.123125 20.798437 
L 41.223125 20.798437 
z
" style="fill: #ffffff"/>
   </g>
   <g id="matplotlib.axis_1">
    <g id="xtick_1">
     <g id="line2d_1">
      <path d="M 55.173125 220.382437 
L 55.173125 20.798437 
" clip-path="url(#p18a566aeb7)" style="fill: none; stroke-dasharray: 2.96,1.28; stroke-dashoffset: 0; stroke: #b0b0b0; stroke-opacity: 0.25; stroke-width: 0.8"/>
     </g>
     <g id="line2d_2">
      <defs>
       <path id="m5f8e3d14ca" d="M 0 0 
L 0 3.5 
" style="stroke: #000000; stroke-width: 0.8"/>
      </defs>
      <g>
       <use xlink:href="#m5f8e3d14ca" x="55.173125" y="220.382437" style="stroke: #000000; stroke-width: 0.8"/>
      </g>
     </g>
     <g id="text_1">
      <text style="font-size: 9px; font-family: 'DejaVu Sans'; text-anchor: middle" x="55.173125" y="234.221031" transform="rotate(-0 55.173125 234.221031)">S0</text>
     </g>
    </g>
    <g id="xtick_2">
     <g id="line2d_3">
      <path d="M 110.973125 220.382437 
L 110.973125 20.798437 
" clip-path="url(#p18a566aeb7)" style="fill: none; stroke-dasharray: 2.96,1.28; stroke-dashoffset: 0; stroke: #b0b0b0; stroke-opacity: 0.25; stroke-width: 0.8"/>
     </g>
     <g id="line2d_4">
      <g>
       <use xlink:href="#m5f8e3d14ca" x="110.973125" y="220.382437" style="stroke: #000000; stroke-width: 0.8"/>
      </g>
     </g>
     <g id="text_2">
      <text style="font-size: 9px; font-family: 'DejaVu Sans'; text-anchor: middle" x="110.973125" y="234.221031" transform="rotate(-0 110.973125 234.221031)">S1</text>
     </g>
    </g>
    <g id="xtick_3">
     <g id="line2d_5">
      <path d="M 166.773125 220.382437 
L 166.773125 20.798437 
" clip-path="url(#p18a566aeb7)" style="fill: none; stroke-dasharray: 2.96,1.28; stroke-dashoffset: 0; stroke: #b0b0b0; stroke-opacity: 0.25; stroke-width: 0.8"/>
     </g>
     <g id="line2d_6">
      <g>
       <use xlink:href="#m5f8e3d14ca" x="166.773125" y="220.382437" style="stroke: #000000; stroke-width: 0.8"/>
      </g>
     </g>
     <g id="text_3">
      <text style="font-size: 9px; font-family: 'DejaVu Sans'; text-anchor: middle" x="166.773125" y="234.221031" transform="rotate(-0 166.773125 234.221031)">S2</text>
     </g>
    </g>
    <g id="xtick_4">
     <g id="line2d_7">
      <path d="M 222.573125 220.382437 
L 222.573125 20.798437 
" clip-path="url(#p18a566aeb7)" style="fill: none; stroke-dasharray: 2.96,1.28; stroke-dashoffset: 0; stroke: #b0b0b0; stroke-opacity: 0.25; stroke-width: 0.8"/>
     </g>
     <g id="line2d_8">
      <g>
       <use xlink:href="#m5f8e3d14ca" x="222.573125" y="220.382437" style="stroke: #000000; stroke-width: 0.8"/>
      </g>
     </g>
     <g id="text_4">
      <text style="font-size: 9px; font-family: 'DejaVu Sans'; text-anchor: middle" x="222.573125" y="234.221031" transform="rotate(-0 222.573125 234.221031)">S3</text>
     </g>
    </g>
    <g id="xtick_5">
     <g id="line2d_9">
      <path d="M 278.373125 220.382437 
L 278.373125 20.798437 
" clip-path="url(#p18a566aeb7)" style="fill: none; stroke-dasharray: 2.96,1.28; stroke-dashoffset: 0; stroke: #b0b0b0; stroke-opacity: 0.25; stroke-width: 0.8"/>
     </g>
     <g id="line2d_10">
      <g>
       <use xlink:href="#m5f8e3d14ca" x="278.373125" y="220.382437" style="stroke: #000000; stroke-width: 0.8"/>
      </g>
     </g>
     <g id="text_5">
      <text style="font-size: 9px; font-family: 'DejaVu Sans'; text-anchor: middle" x="278.373125" y="234.221031" transform="rotate(-0 278.373125 234.221031)">S4</text>
     </g>
    </g>
    <g id="xtick_6">
     <g id="line2d_11">
      <path d="M 334.173125 220.382437 
L 334.173125 20.798437 
" clip-path="url(#p18a566aeb7)" style="fill: none; stroke-dasharray: 2.96,1.28; stroke-dashoffset: 0; stroke: #b0b0b0; stroke-opacity: 0.25; stroke-width: 0.8"/>
     </g>
     <g id="line2d_12">
      <g>
       <use xlink:href="#m5f8e3d14ca" x="334.173125" y="220.382437" style="stroke: #000000; stroke-width: 0.8"/>
      </g>
     </g>
     <g id="text_6">
      <text style="font-size: 9px; font-family: 'DejaVu Sans'; text-anchor: middle" x="334.173125" y="234.221031" transform="rotate(-0 334.173125 234.221031)">S5</text>
     </g>
    </g>
   </g>
   <g id="matplotlib.axis_2">
    <g id="ytick_1">
     <g id="line2d_13">
      <path d="M 41.223125 220.382437 
L 348.123125 220.382437 
" clip-path="url(#p18a566aeb7)" style="fill: none; stroke-dasharray: 2.96,1.28; stroke-dashoffset: 0; stroke: #b0b0b0; stroke-opacity: 0.25; stroke-width: 0.8"/>
     </g>
     <g id="line2d_14">
      <defs>
       <path id="m247505b1c1" d="M 0 0 
L -3.5 0 
" style="stroke: #000000; stroke-width: 0.8"/>
      </defs>
      <g>
       <use xlink:href="#m247505b1c1" x="41.223125" y="220.382437" style="stroke: #000000; stroke-width: 0.8"/>
      </g>
     </g>
     <g id="text_7">
      <text style="font-size: 9px; font-family: 'DejaVu Sans'; text-anchor: end" x="34.223125" y="223.801734" transform="rotate(-0 34.223125 223.801734)">0.0</text>
     </g>
    </g>
    <g id="ytick_2">
     <g id="line2d_15">
      <path d="M 41.223125 180.465637 
L 348.123125 180.465637 
" clip-path="url(#p18a566aeb7)" style="fill: none; stroke-dasharray: 2.96,1.28; stroke-dashoffset: 0; stroke: #b0b0b0; stroke-opacity: 0.25; stroke-width: 0.8"/>
     </g>
     <g id="line2d_16">
      <g>
       <use xlink:href="#m247505b1c1" x="41.223125" y="180.465637" style="stroke: #000000; stroke-width: 0.8"/>
      </g>
     </g>
     <g id="text_8">
      <text style="font-size: 9px; font-family: 'DejaVu Sans'; text-anchor: end" x="34.223125" y="183.884934" transform="rotate(-0 34.223125 183.884934)">0.2</text>
     </g>
    </g>
    <g id="ytick_3">
     <g id="line2d_17">
      <path d="M 41.223125 140.548837 
L 348.123125 140.548837 
" clip-path="url(#p18a566aeb7)" style="fill: none; stroke-dasharray: 2.96,1.28; stroke-dashoffset: 0; stroke: #b0b0b0; stroke-opacity: 0.25; stroke-width: 0.8"/>
     </g>
     <g id="line2d_18">
      <g>
       <use xlink:href="#m247505b1c1" x="41.223125" y="140.548837" style="stroke: #000000; stroke-width: 0.8"/>
      </g>
     </g>
     <g id="text_9">
      <text style="font-size: 9px; font-family: 'DejaVu Sans'; text-anchor: end" x="34.223125" y="143.968134" transform="rotate(-0 34.223125 143.968134)">0.4</text>
     </g>
    </g>
    <g id="ytick_4">
     <g id="line2d_19">
      <path d="M 41.223125 100.632037 
L 348.123125 100.632037 
" clip-path="url(#p18a566aeb7)" style="fill: none; stroke-dasharray: 2.96,1.28; stroke-dashoffset: 0; stroke: #b0b0b0; stroke-opacity: 0.25; stroke-width: 0.8"/>
     </g>
     <g id="line2d_20">
      <g>
       <use xlink:href="#m247505b1c1" x="41.223125" y="100.632037" style="stroke: #000000; stroke-width: 0.8"/>
      </g>
     </g>
     <g id="text_10">
      <text style="font-size: 9px; font-family: 'DejaVu Sans'; text-anchor: end" x="34.223125" y="104.051334" transform="rotate(-0 34.223125 104.051334)">0.6</text>
     </g>
    </g>
    <g id="ytick_5">
     <g id="line2d_21">
      <path d="M 41.223125 60.715237 
L 348.123125 60.715237 
" clip-path="url(#p18a566aeb7)" style="fill: none; stroke-dasharray: 2.96,1.28; stroke-dashoffset: 0; stroke: #b0b0b0; stroke-opacity: 0.25; stroke-width: 0.8"/>
     </g>
     <g id="line2d_22">
      <g>
       <use xlink:href="#m247505b1c1" x="41.223125" y="60.715237" style="stroke: #000000; stroke-width: 0.8"/>
      </g>
     </g>
     <g id="text_11">
      <text style="font-size: 9px; font-family: 'DejaVu Sans'; text-anchor: end" x="34.223125" y="64.134534" transform="rotate(-0 34.223125 64.134534)">0.8</text>
     </g>
    </g>
    <g id="ytick_6">
     <g id="line2d_23">
      <path d="M 41.223125 20.798437 
L 348.123125 20.798437 
" clip-path="url(#p18a566aeb7)" style="fill: none; stroke-dasharray: 2.96,1.28; stroke-dashoffset: 0; stroke: #b0b0b0; stroke-opacity: 0.25; stroke-width: 0.8"/>
     </g>
     <g id="line2d_24">
      <g>
       <use xlink:href="#m247505b1c1" x="41.223125" y="20.798437" style="stroke: #000000; stroke-width: 0.8"/>
      </g>
     </g>
     <g id="text_12">
      <text style="font-size: 9px; font-family: 'DejaVu Sans'; text-anchor: end" x="34.223125" y="24.217734" transform="rotate(-0 34.223125 24.217734)">1.0</text>
     </g>
    </g>
    <g id="text_13">
     <text style="font-size: 9px; font-family: 'DejaVu Sans'; text-anchor: middle" x="14.038594" y="120.590437" transform="rotate(-90 14.038594 120.590437)">weighted F1  /  Lin IC</text>
    </g>
   </g>
   <g id="FillBetweenPolyCollection_1">
    <defs>
     <path id="m2baabb08f4" d="M 55.173125 -129.735603 
L 55.173125 -115.512052 
L 110.973125 -162.921232 
L 166.773125 -180.778205 
L 222.573125 -179.31777 
L 278.373125 -179.897926 
L 334.173125 -172.95747 
L 334.173125 -180.182369 
L 334.173125 -180.182369 
L 278.373125 -186.796047 
L 222.573125 -180.375086 
L 166.773125 -182.274506 
L 110.973125 -168.968183 
L 55.173125 -129.735603 
z
"/>
    </defs>
    <g clip-path="url(#p18a566aeb7)">
     <use xlink:href="#m2baabb08f4" x="0" y="243.29275" style="fill: #8f7fbf; fill-opacity: 0.15"/>
    </g>
   </g>
   <g id="FillBetweenPolyCollection_2">
    <defs>
     <path id="m4d66c337cb" d="M 55.173125 -119.786488 
L 55.173125 -109.091376 
L 110.973125 -160.687858 
L 166.773125 -185.779095 
L 222.573125 -188.54693 
L 278.373125 -188.162498 
L 334.173125 -182.434174 
L 334.173125 -194.131379 
L 334.173125 -194.131379 
L 278.373125 -193.526801 
L 222.573125 -191.790836 
L 166.773125 -196.089336 
L 110.973125 -162.234029 
L 55.173125 -119.786488 
z
"/>
    </defs>
    <g clip-path="url(#p18a566aeb7)">
     <use xlink:href="#m4d66c337cb" x="0" y="243.29275" style="fill: #8f7fbf; fill-opacity: 0.15"/>
    </g>
   </g>
   <g id="FillBetweenPolyCollection_3">
    <defs>
     <path id="me295f1c5b1" d="M 55.173125 -155.087443 
L 55.173125 -152.134887 
L 110.973125 -166.634541 
L 166.773125 -180.773471 
L 222.573125 -180.595181 
L 278.373125 -180.773471 
L 334.173125 -177.141925 
L 334.173125 -178.49132 
L 334.173125 -178.49132 
L 278.373125 -181.391086 
L 222.573125 -181.212796 
L 166.773125 -181.391086 
L 110.973125 -169.879247 
L 55.173125 -155.087443 
z
"/>
    </defs>
    <g clip-path="url(#p18a566aeb7)">
     <use xlink:href="#me295f1c5b1" x="0" y="243.29275" style="fill: #5fa8a0; fill-opacity: 0.15"/>
    </g>
   </g>
   <g id="FillBetweenPolyCollection_4">
    <defs>
     <path id="m2b749a5783" d="M 55.173125 -159.17017 
L 55.173125 -143.577823 
L 110.973125 -163.374938 
L 166.773125 -188.595891 
L 222.573125 -186.674804 
L 278.373125 -188.876591 
L 334.173125 -186.539535 
L 334.173125 -191.293906 
L 334.173125 -191.293906 
L 278.373125 -190.814962 
L 222.573125 -192.823965 
L 166.773125 -192.460434 
L 110.973125 -167.33405 
L 55.173125 -159.17017 
z
"/>
    </defs>
    <g clip-path="url(#p18a566aeb7)">
     <use xlink:href="#m2b749a5783" x="0" y="243.29275" style="fill: #5fa8a0; fill-opacity: 0.15"/>
    </g>
   </g>
   <g id="FillBetweenPolyCollection_5">
    <defs>
     <path id="mb652636221" d="M 55.173125 -89.775268 
L 55.173125 -69.755193 
L 110.973125 -165.571387 
L 166.773125 -176.628181 
L 222.573125 -175.387374 
L 278.373125 -178.760435 
L 334.173125 -173.12068 
L 334.173125 -177.11642 
L 334.173125 -177.11642 
L 278.373125 -179.734478 
L 222.573125 -178.883522 
L 166.773125 -177.27137 
L 110.973125 -170.668057 
L 55.173125 -89.775268 
z
"/>
    </defs>
    <g clip-path="url(#p18a566aeb7)">
     <use xlink:href="#mb652636221" x="0" y="243.29275" style="fill: #b8866b; fill-opacity: 0.15"/>
    </g>
   </g>
   <g id="FillBetweenPolyCollection_6">
    <defs>
     <path id="m9f3947d960" d="M 55.173125 -77.203349 
L 55.173125 -56.432318 
L 110.973125 -158.398763 
L 166.773125 -182.134461 
L 222.573125 -180.413457 
L 278.373125 -181.990064 
L 334.173125 -180.586848 
L 334.173125 -183.312917 
L 334.173125 -183.312917 
L 278.373125 -182.764352 
L 222.573125 -182.364119 
L 166.773125 -182.855219 
L 110.973125 -159.228307 
L 55.173125 -77.203349 
z
"/>
    </defs>
    <g clip-path="url(#p18a566aeb7)">
     <use xlink:href="#m9f3947d960" x="0" y="243.29275" style="fill: #b8866b; fill-opacity: 0.15"/>
    </g>
   </g>
   <g id="line2d_25">
    <path d="M 55.173125 120.668923 
L 110.973125 77.348042 
L 166.773125 61.766395 
L 222.573125 63.446322 
L 278.373125 59.945764 
L 334.173125 66.72283 
" clip-path="url(#p18a566aeb7)" style="fill: none; stroke: #8f7fbf; stroke-width: 1.8; stroke-linecap: square"/>
    <defs>
     <path id="m38ce2b38a1" d="M 0 2 
C 0.530406 2 1.03916 1.789267 1.414214 1.414214 
C 1.789267 1.03916 2 0.530406 2 0 
C 2 -0.530406 1.789267 -1.03916 1.414214 -1.414214 
C 1.03916 -1.789267 0.530406 -2 0 -2 
C -0.530406 -2 -1.03916 -1.789267 -1.414214 -1.414214 
C -1.789267 -1.03916 -2 -0.530406 -2 0 
C -2 0.530406 -1.789267 1.03916 -1.414214 1.414214 
C -1.03916 1.789267 -0.530406 2 0 2 
z
" style="stroke: #8f7fbf"/>
    </defs>
    <g clip-path="url(#p18a566aeb7)">
     <use xlink:href="#m38ce2b38a1" x="55.173125" y="120.668923" style="fill: #8f7fbf; stroke: #8f7fbf"/>
     <use xlink:href="#m38ce2b38a1" x="110.973125" y="77.348042" style="fill: #8f7fbf; stroke: #8f7fbf"/>
     <use xlink:href="#m38ce2b38a1" x="166.773125" y="61.766395" style="fill: #8f7fbf; stroke: #8f7fbf"/>
     <use xlink:href="#m38ce2b38a1" x="222.573125" y="63.446322" style="fill: #8f7fbf; stroke: #8f7fbf"/>
     <use xlink:href="#m38ce2b38a1" x="278.373125" y="59.945764" style="fill: #8f7fbf; stroke: #8f7fbf"/>
     <use xlink:href="#m38ce2b38a1" x="334.173125" y="66.72283" style="fill: #8f7fbf; stroke: #8f7fbf"/>
    </g>
   </g>
   <g id="line2d_26">
    <path d="M 55.173125 128.853818 
L 110.973125 81.831806 
L 166.773125 52.358534 
L 222.573125 53.123867 
L 278.373125 52.448101 
L 334.173125 55.009974 
" clip-path="url(#p18a566aeb7)" style="fill: none; stroke-dasharray: 6.66,2.88; stroke-dashoffset: 0; stroke: #8f7fbf; stroke-width: 1.8"/>
    <defs>
     <path id="m6903010d39" d="M -2 2 
L 2 2 
L 2 -2 
L -2 -2 
z
" style="stroke: #8f7fbf; stroke-linejoin: miter"/>
    </defs>
    <g clip-path="url(#p18a566aeb7)">
     <use xlink:href="#m6903010d39" x="55.173125" y="128.853818" style="fill: #8f7fbf; stroke: #8f7fbf; stroke-linejoin: miter"/>
     <use xlink:href="#m6903010d39" x="110.973125" y="81.831806" style="fill: #8f7fbf; stroke: #8f7fbf; stroke-linejoin: miter"/>
     <use xlink:href="#m6903010d39" x="166.773125" y="52.358534" style="fill: #8f7fbf; stroke: #8f7fbf; stroke-linejoin: miter"/>
     <use xlink:href="#m6903010d39" x="222.573125" y="53.123867" style="fill: #8f7fbf; stroke: #8f7fbf; stroke-linejoin: miter"/>
     <use xlink:href="#m6903010d39" x="278.373125" y="52.448101" style="fill: #8f7fbf; stroke: #8f7fbf; stroke-linejoin: miter"/>
     <use xlink:href="#m6903010d39" x="334.173125" y="55.009974" style="fill: #8f7fbf; stroke: #8f7fbf; stroke-linejoin: miter"/>
    </g>
   </g>
   <g id="line2d_27">
    <path d="M 55.173125 89.681585 
L 110.973125 75.035856 
L 166.773125 62.210472 
L 222.573125 62.388762 
L 278.373125 62.210472 
L 334.173125 65.476128 
" clip-path="url(#p18a566aeb7)" style="fill: none; stroke: #5fa8a0; stroke-width: 1.8; stroke-linecap: square"/>
    <defs>
     <path id="me38d367ab5" d="M 0 2 
C 0.530406 2 1.03916 1.789267 1.414214 1.414214 
C 1.789267 1.03916 2 0.530406 2 0 
C 2 -0.530406 1.789267 -1.03916 1.414214 -1.414214 
C 1.03916 -1.789267 0.530406 -2 0 -2 
C -0.530406 -2 -1.03916 -1.789267 -1.414214 -1.414214 
C -1.789267 -1.03916 -2 -0.530406 -2 0 
C -2 0.530406 -1.789267 1.03916 -1.414214 1.414214 
C -1.03916 1.789267 -0.530406 2 0 2 
z
" style="stroke: #5fa8a0"/>
    </defs>
    <g clip-path="url(#p18a566aeb7)">
     <use xlink:href="#me38d367ab5" x="55.173125" y="89.681585" style="fill: #5fa8a0; stroke: #5fa8a0"/>
     <use xlink:href="#me38d367ab5" x="110.973125" y="75.035856" style="fill: #5fa8a0; stroke: #5fa8a0"/>
     <use xlink:href="#me38d367ab5" x="166.773125" y="62.210472" style="fill: #5fa8a0; stroke: #5fa8a0"/>
     <use xlink:href="#me38d367ab5" x="222.573125" y="62.388762" style="fill: #5fa8a0; stroke: #5fa8a0"/>
     <use xlink:href="#me38d367ab5" x="278.373125" y="62.210472" style="fill: #5fa8a0; stroke: #5fa8a0"/>
     <use xlink:href="#me38d367ab5" x="334.173125" y="65.476128" style="fill: #5fa8a0; stroke: #5fa8a0"/>
    </g>
   </g>
   <g id="line2d_28">
    <path d="M 55.173125 91.918754 
L 110.973125 77.938256 
L 166.773125 52.764587 
L 222.573125 53.543366 
L 278.373125 53.446974 
L 334.173125 54.376029 
" clip-path="url(#p18a566aeb7)" style="fill: none; stroke-dasharray: 6.66,2.88; stroke-dashoffset: 0; stroke: #5fa8a0; stroke-width: 1.8"/>
    <defs>
     <path id="m29e2262624" d="M -2 2 
L 2 2 
L 2 -2 
L -2 -2 
z
" style="stroke: #5fa8a0; stroke-linejoin: miter"/>
    </defs>
    <g clip-path="url(#p18a566aeb7)">
     <use xlink:href="#m29e2262624" x="55.173125" y="91.918754" style="fill: #5fa8a0; stroke: #5fa8a0; stroke-linejoin: miter"/>
     <use xlink:href="#m29e2262624" x="110.973125" y="77.938256" style="fill: #5fa8a0; stroke: #5fa8a0; stroke-linejoin: miter"/>
     <use xlink:href="#m29e2262624" x="166.773125" y="52.764587" style="fill: #5fa8a0; stroke: #5fa8a0; stroke-linejoin: miter"/>
     <use xlink:href="#m29e2262624" x="222.573125" y="53.543366" style="fill: #5fa8a0; stroke: #5fa8a0; stroke-linejoin: miter"/>
     <use xlink:href="#m29e2262624" x="278.373125" y="53.446974" style="fill: #5fa8a0; stroke: #5fa8a0; stroke-linejoin: miter"/>
     <use xlink:href="#m29e2262624" x="334.173125" y="54.376029" style="fill: #5fa8a0; stroke: #5fa8a0; stroke-linejoin: miter"/>
    </g>
   </g>
   <g id="line2d_29">
    <path d="M 55.173125 163.52752 
L 110.973125 75.173028 
L 166.773125 66.342975 
L 222.573125 66.157302 
L 278.373125 64.045293 
L 334.173125 68.1742 
" clip-path="url(#p18a566aeb7)" style="fill: none; stroke: #b8866b; stroke-width: 1.8; stroke-linecap: square"/>
    <defs>
     <path id="m718cf979dd" d="M 0 2 
C 0.530406 2 1.03916 1.789267 1.414214 1.414214 
C 1.789267 1.03916 2 0.530406 2 0 
C 2 -0.530406 1.789267 -1.03916 1.414214 -1.414214 
C 1.03916 -1.789267 0.530406 -2 0 -2 
C -0.530406 -2 -1.03916 -1.789267 -1.414214 -1.414214 
C -1.789267 -1.03916 -2 -0.530406 -2 0 
C -2 0.530406 -1.789267 1.03916 -1.414214 1.414214 
C -1.03916 1.789267 -0.530406 2 0 2 
z
" style="stroke: #b8866b"/>
    </defs>
    <g clip-path="url(#p18a566aeb7)">
     <use xlink:href="#m718cf979dd" x="55.173125" y="163.52752" style="fill: #b8866b; stroke: #b8866b"/>
     <use xlink:href="#m718cf979dd" x="110.973125" y="75.173028" style="fill: #b8866b; stroke: #b8866b"/>
     <use xlink:href="#m718cf979dd" x="166.773125" y="66.342975" style="fill: #b8866b; stroke: #b8866b"/>
     <use xlink:href="#m718cf979dd" x="222.573125" y="66.157302" style="fill: #b8866b; stroke: #b8866b"/>
     <use xlink:href="#m718cf979dd" x="278.373125" y="64.045293" style="fill: #b8866b; stroke: #b8866b"/>
     <use xlink:href="#m718cf979dd" x="334.173125" y="68.1742" style="fill: #b8866b; stroke: #b8866b"/>
    </g>
   </g>
   <g id="line2d_30">
    <path d="M 55.173125 176.474916 
L 110.973125 84.479215 
L 166.773125 60.79791 
L 222.573125 61.903962 
L 278.373125 60.915542 
L 334.173125 61.342868 
" clip-path="url(#p18a566aeb7)" style="fill: none; stroke-dasharray: 6.66,2.88; stroke-dashoffset: 0; stroke: #b8866b; stroke-width: 1.8"/>
    <defs>
     <path id="m2d55576578" d="M -2 2 
L 2 2 
L 2 -2 
L -2 -2 
z
" style="stroke: #b8866b; stroke-linejoin: miter"/>
    </defs>
    <g clip-path="url(#p18a566aeb7)">
     <use xlink:href="#m2d55576578" x="55.173125" y="176.474916" style="fill: #b8866b; stroke: #b8866b; stroke-linejoin: miter"/>
     <use xlink:href="#m2d55576578" x="110.973125" y="84.479215" style="fill: #b8866b; stroke: #b8866b; stroke-linejoin: miter"/>
     <use xlink:href="#m2d55576578" x="166.773125" y="60.79791" style="fill: #b8866b; stroke: #b8866b; stroke-linejoin: miter"/>
     <use xlink:href="#m2d55576578" x="222.573125" y="61.903962" style="fill: #b8866b; stroke: #b8866b; stroke-linejoin: miter"/>
     <use xlink:href="#m2d55576578" x="278.373125" y="60.915542" style="fill: #b8866b; stroke: #b8866b; stroke-linejoin: miter"/>
     <use xlink:href="#m2d55576578" x="334.173125" y="61.342868" style="fill: #b8866b; stroke: #b8866b; stroke-linejoin: miter"/>
    </g>
   </g>
   <g id="patch_3">
    <path d="M 41.223125 220.382437 
L 41.223125 20.798437 
" style="fill: none; stroke: #000000; stroke-width: 0.8; stroke-linejoin: miter; stroke-linecap: square"/>
   </g>
   <g id="patch_4">
    <path d="M 41.223125 220.382437 
L 348.123125 220.382437 
" style="fill: none; stroke: #000000; stroke-width: 0.8; stroke-linejoin: miter; stroke-linecap: square"/>
   </g>
   <g id="text_14">
    <text style="font-weight: 700; font-size: 10px; font-family: 'DejaVu Sans'; text-anchor: start" x="41.223125" y="14.798437" transform="rotate(-0 41.223125 14.798437)">a</text>
   </g>
   <g id="legend_1">
    <g id="line2d_31">
     <path d="M 361.461125 31.277187 
L 367.061125 31.277187 
L 372.661125 31.277187 
" style="fill: none; stroke: #9a9a9a; stroke-width: 1.8; stroke-linecap: square"/>
    </g>
    <g id="text_15">
     <text style="font-size: 8px; font-family: 'DejaVu Sans'; text-anchor: start" x="379.061125" y="34.077187" transform="rotate(-0 379.061125 34.077187)">F1</text>
    </g>
    <g id="line2d_32">
     <path d="M 361.461125 43.019687 
L 367.061125 43.019687 
L 372.661125 43.019687 
" style="fill: none; stroke-dasharray: 6.66,2.88; stroke-dashoffset: 0; stroke: #9a9a9a; stroke-width: 1.8"/>
    </g>
    <g id="text_16">
     <text style="font-size: 8px; font-family: 'DejaVu Sans'; text-anchor: start" x="379.061125" y="45.819687" transform="rotate(-0 379.061125 45.819687)">Lin IC</text>
    </g>
    <g id="line2d_33">
     <path d="M 361.461125 54.762187 
L 367.061125 54.762187 
L 372.661125 54.762187 
" style="fill: none; stroke: #000000; stroke-opacity: 0; stroke-width: 1.5; stroke-linecap: square"/>
    </g>
    <g id="line2d_34">
     <path d="M 361.461125 66.504687 
L 367.061125 66.504687 
L 372.661125 66.504687 
" style="fill: none; stroke: #8f7fbf; stroke-width: 3; stroke-linecap: square"/>
    </g>
    <g id="text_17">
     <text style="font-size: 8px; font-family: 'DejaVu Sans'; text-anchor: start" x="379.061125" y="69.304687" transform="rotate(-0 379.061125 69.304687)">Qwen3.8-27B</text>
    </g>
    <g id="line2d_35">
     <path d="M 361.461125 78.247187 
L 367.061125 78.247187 
L 372.661125 78.247187 
" style="fill: none; stroke: #5fa8a0; stroke-width: 3; stroke-linecap: square"/>
    </g>
    <g id="text_18">
     <text style="font-size: 8px; font-family: 'DejaVu Sans'; text-anchor: start" x="379.061125" y="81.047187" transform="rotate(-0 379.061125 81.047187)">Gemma 4 31B</text>
    </g>
    <g id="line2d_36">
     <path d="M 361.461125 89.989687 
L 367.061125 89.989687 
L 372.661125 89.989687 
" style="fill: none; stroke: #b8866b; stroke-width: 3; stroke-linecap: square"/>
    </g>
    <g id="text_19">
     <text style="font-size: 8px; font-family: 'DejaVu Sans'; text-anchor: start" x="379.061125" y="92.789687" transform="rotate(-0 379.061125 92.789687)">GLM-4.7</text>
    </g>
   </g>
  </g>
 </g>
 <defs>
  <clipPath id="p18a566aeb7">
   <rect x="41.223125" y="20.798437" width="306.9" height="199.584"/>
  </clipPath>
 </defs>
</svg>
