<svg xmlns="http://www.w3.org/2000/svg" viewBox="0 0 1000 742" width="1000" height="742" font-family="Arial, Helvetica, sans-serif" xmlns:c2pa="http://c2pa.org/manifest"><metadata><c2pa:manifest>AAAWgmp1bWIAAAAeanVtZGMycGEAEQAQgAAAqgA4m3EDYzJwYQAAABZcanVtYgAAAEdqdW1kYzJtYQARABCAAACqADibcQN1cm46YzJwYTo3ZjZjOWY4MS04Mjc2LTQyNWQtYjAxYy00MWFlYWQ4NjJhNjIAAAADl2p1bWIAAAApanVtZGMyYXMAEQAQgAAAqgA4m3EDYzJwYS5hc3NlcnRpb25zAAAAALxqdW1iAAAARGp1bWRjYm9yABEAEIAAAKoAOJtxE2MycGEuaW5ncmVkaWVudC52MwAAAAAYYzJzaOHxLc1NdM8W+3jbuLMqaigAAABwY2JvcqNpZGM6Zm9ybWF0bWltYWdlL3N2Zyt4bWxqaW5zdGFuY2VJRHgseG1wOmlpZDpmNTdiOWFmOC0zZjM4LTQ5YzYtYjJiMi0yYzY3ZmU5OGIyMWVscmVsYXRpb25zaGlwaHBhcmVudE9mAAAB4mp1bWIAAABBanVtZGNib3IAEQAQgAAAqgA4m3ETYzJwYS5hY3Rpb25zLnYyAAAAABhjMnNoWwpfjLavBOLR8C8638t1pQAAAZljYm9yomdhY3Rpb25zgqJmYWN0aW9ua2MycGEub3BlbmVkanBhcmFtZXRlcnOha2luZ3JlZGllbnRzgaJjdXJseC1zZWxmI2p1bWJmPWMycGEuYXNzZXJ0aW9ucy9jMnBhLmluZ3JlZGllbnQudjNkaGFzaFgg4yL1hP641UU5YY2AQcgDvbOGO96gwoi0ADW5C56a9qikZmFjdGlvbngdY29tLmFudGhyb3BpYy5jbGF1ZGUucHJvdmlkZWRqcGFyYW1ldGVyc6F4H2NvbS5hbnRocm9waWMub3JpZ2luLWNvbmZpZGVuY2VndW5rbm93bmtkZXNjcmlwdGlvbnhmQ2xhdWRlIHByb3ZpZGVkIHRoaXMgZmlsZSBhdCB0aGUgcmVxdWVzdCBvZiBhIHVzZXIgYW5kIG1heSBoYXZlIGNyZWF0ZWQgb3IgbW9kaWZpZWQgdGhlIGZpbGUgY29udGVudHMubXNvZnR3YXJlQWdlbnShZG5hbWVmQ2xhdWRlcmFsbEFjdGlvbnNJbmNsdWRlZPUAAADIanVtYgAAAEBqdW1kY2JvcgARABCAAACqADibcRNjMnBhLmhhc2guZGF0YQAAAAAYYzJzaJ3VAUiEr5n8ruDCpv1459wAAACAY2JvcqVjYWxnZnNoYTI1NmNwYWRNAAAAAAAAAAAAAAAAAGRoYXNoWCAreCwObnFgD5117GCRY2cd1A9Wh6kivPbwDrF6pxLa02RuYW1lbmp1bWJmIG1hbmlmZXN0amV4Y2x1c2lvbnOBomVzdGFydBjDZmxlbmd0aBkeBAAAAj5qdW1iAAAAJ2p1bWRjMmNsABEAEIAAAKoAOJtxA2MycGEuY2xhaW0udjIAAAACD2Nib3KlY2FsZ2ZzaGEyNTZpc2lnbmF0dXJleE1zZWxmI2p1bWJmPS9jMnBhL3VybjpjMnBhOjdmNmM5ZjgxLTgyNzYtNDI1ZC1iMDFjLTQxYWVhZDg2MmE2Mi9jMnBhLnNpZ25hdHVyZWppbnN0YW5jZUlEeCx4bXA6aWlkOjFkNzJhMjk4LWNkZmQtNDJmNC1hNTZiLTI0MGZlY2I0NWRjZHJjcmVhdGVkX2Fzc2VydGlvbnODomN1cmx4LXNlbGYjanVtYmY9YzJwYS5hc3NlcnRpb25zL2MycGEuaW5ncmVkaWVudC52M2RoYXNoWCDjIvWE/rjVRTlhjYBByAO9s4Y73qDCiLQANbkLnpr2qKJjdXJseCpzZWxmI2p1bWJmPWMycGEuYXNzZXJ0aW9ucy9jMnBhLmFjdGlvbnMudjJkaGFzaFggBy7geRoK9mblpaZZ+P1ju5ZhSMt5ZYIHgPA7migKk/yiY3VybHgpc2VsZiNqdW1iZj1jMnBhLmFzc2VydGlvbnMvYzJwYS5oYXNoLmRhdGFkaGFzaFggKMnDzkfd2pHYTqStCvwVk7y+viLXcdYWwbH2ifCL4cF0Y2xhaW1fZ2VuZXJhdG9yX2luZm+jZG5hbWVvQW50aHJvcGljIEZpbGVzZ3ZlcnNpb25lMS4wLjBrc3BlY1ZlcnNpb25lMi40LjAAABA4anVtYgAAAChqdW1kYzJjcwARABCAAACqADibcQNjMnBhLnNpZ25hdHVyZQAAABAIY2JvctKEWQISogEmGCFZAgowggIGMIIBjaADAgECAhRA5aAK7sI50L64g/oGQgU9Z1UTADAKBggqhkjOPQQDAzBJMRcwFQYDVQQKEw5BbnRocm9waWMsIFBCQzEuMCwGA1UEAxMlQW50aHJvcGljIENvbnRlbnQgQ3JlZGVudGlhbHMgUm9vdCBDQTAeFw0yNjA4MDcxODQzNTZaFw0yODA4MDYxOTQzNTZaMEQxFzAVBgNVBAoTDkFudGhyb3BpYywgUEJDMSkwJwYDVQQDEyBBbnRocm9waWMgQ2xhdWRlIENvbnRlbnQgU2lnbmluZzBZMBMGByqGSM49AgEGCCqGSM49AwEHA0IABJh6CmvLUBgFFNU0vUKlOVtE6djd17L5SuwX0LemFisBM3dkd/3cyjxFA3Qo5S46fX0/ihY0VZ7mfb9KF703t5OjWDBWMA4GA1UdDwEB/wQEAwIHgDAVBgNVHSUEDjAMBgorBgEEAYPoXgIBMAwGA1UdEwEB/wQCMAAwHwYDVR0jBBgwFoAUzlHiBIFOZFsj+OPEz5o+nMHXXMIwCgYIKoZIzj0EAwMDZwAwZAIwMXMdFJ4BetLLVY7ORuE9noqbbAZOZn/aArXyTwFAZfKrPzxF2vPoJNf1+UCdg1XGAjBwX1zd9WGqYkqmL5SFqw1QySjr1zJfpJM9+1rdDwSPLMOPOjKuiXjoU/pUUeG9RwmhY3BhZFkNngAAAAAAAAAAAAAAAAAAAAAAAAAAAAAAAAAAAAAAAAAAAAAAAAAAAAAAAAAAAAAAAAAAAAAAAAAAAAAAAAAAAAAAAAAAAAAAAAAAAAAAAAAAAAAAAAAAAAAAAAAAAAAAAAAAAAAAAAAAAAAAAAAAAAAAAAAAAAAAAAAAAAAAAAAAAAAAAAAAAAAAAAAAAAAAAAAAAAAAAAAAAAAAAAAAAAAAAAAAAAAAAAAAAAAAAAAAAAAAAAAAAAAAAAAAAAAAAAAAAAAAAAAAAAAAAAAAAAAAAAAAAAAAAAAAAAAAAAAAAAAAAAAAAAAAAAAAAAAAAAAAAAAAAAAAAAAAAAAAAAAAAAAAAAAAAAAAAAAAAAAAAAAAAAAAAAAAAAAAAAAAAAAAAAAAAAAAAAAAAAAAAAAAAAAAAAAAAAAAAAAAAAAAAAAAAAAAAAAAAAAAAAAAAAAAAAAAAAAAAAAAAAAAAAAAAAAAAAAAAAAAAAAAAAAAAAAAAAAAAAAAAAAAAAAAAAAAAAAAAAAAAAAAAAAAAAAAAAAAAAAAAAAAAAAAAAAAAAAAAAAAAAAAAAAAAAAAAAAAAAAAAAAAAAAAAAAAAAAAAAAAAAAAAAAAAAAAAAAAAAAAAAAAAAAAAAAAAAAAAAAAAAAAAAAAAAAAAAAAAAAAAAAAAAAAAAAAAAAAAAAAAAAAAAAAAAAAAAAAAAAAAAAAAAAAAAAAAAAAAAAAAAAAAAAAAAAAAAAAAAAAAAAAAAAAAAAAAAAAAAAAAAAAAAAAAAAAAAAAAAAAAAAAAAAAAAAAAAAAAAAAAAAAAAAAAAAAAAAAAAAAAAAAAAAAAAAAAAAAAAAAAAAAAAAAAAAAAAAAAAAAAAAAAAAAAAAAAAAAAAAAAAAAAAAAAAAAAAAAAAAAAAAAAAAAAAAAAAAAAAAAAAAAAAAAAAAAAAAAAAAAAAAAAAAAAAAAAAAAAAAAAAAAAAAAAAAAAAAAAAAAAAAAAAAAAAAAAAAAAAAAAAAAAAAAAAAAAAAAAAAAAAAAAAAAAAAAAAAAAAAAAAAAAAAAAAAAAAAAAAAAAAAAAAAAAAAAAAAAAAAAAAAAAAAAAAAAAAAAAAAAAAAAAAAAAAAAAAAAAAAAAAAAAAAAAAAAAAAAAAAAAAAAAAAAAAAAAAAAAAAAAAAAAAAAAAAAAAAAAAAAAAAAAAAAAAAAAAAAAAAAAAAAAAAAAAAAAAAAAAAAAAAAAAAAAAAAAAAAAAAAAAAAAAAAAAAAAAAAAAAAAAAAAAAAAAAAAAAAAAAAAAAAAAAAAAAAAAAAAAAAAAAAAAAAAAAAAAAAAAAAAAAAAAAAAAAAAAAAAAAAAAAAAAAAAAAAAAAAAAAAAAAAAAAAAAAAAAAAAAAAAAAAAAAAAAAAAAAAAAAAAAAAAAAAAAAAAAAAAAAAAAAAAAAAAAAAAAAAAAAAAAAAAAAAAAAAAAAAAAAAAAAAAAAAAAAAAAAAAAAAAAAAAAAAAAAAAAAAAAAAAAAAAAAAAAAAAAAAAAAAAAAAAAAAAAAAAAAAAAAAAAAAAAAAAAAAAAAAAAAAAAAAAAAAAAAAAAAAAAAAAAAAAAAAAAAAAAAAAAAAAAAAAAAAAAAAAAAAAAAAAAAAAAAAAAAAAAAAAAAAAAAAAAAAAAAAAAAAAAAAAAAAAAAAAAAAAAAAAAAAAAAAAAAAAAAAAAAAAAAAAAAAAAAAAAAAAAAAAAAAAAAAAAAAAAAAAAAAAAAAAAAAAAAAAAAAAAAAAAAAAAAAAAAAAAAAAAAAAAAAAAAAAAAAAAAAAAAAAAAAAAAAAAAAAAAAAAAAAAAAAAAAAAAAAAAAAAAAAAAAAAAAAAAAAAAAAAAAAAAAAAAAAAAAAAAAAAAAAAAAAAAAAAAAAAAAAAAAAAAAAAAAAAAAAAAAAAAAAAAAAAAAAAAAAAAAAAAAAAAAAAAAAAAAAAAAAAAAAAAAAAAAAAAAAAAAAAAAAAAAAAAAAAAAAAAAAAAAAAAAAAAAAAAAAAAAAAAAAAAAAAAAAAAAAAAAAAAAAAAAAAAAAAAAAAAAAAAAAAAAAAAAAAAAAAAAAAAAAAAAAAAAAAAAAAAAAAAAAAAAAAAAAAAAAAAAAAAAAAAAAAAAAAAAAAAAAAAAAAAAAAAAAAAAAAAAAAAAAAAAAAAAAAAAAAAAAAAAAAAAAAAAAAAAAAAAAAAAAAAAAAAAAAAAAAAAAAAAAAAAAAAAAAAAAAAAAAAAAAAAAAAAAAAAAAAAAAAAAAAAAAAAAAAAAAAAAAAAAAAAAAAAAAAAAAAAAAAAAAAAAAAAAAAAAAAAAAAAAAAAAAAAAAAAAAAAAAAAAAAAAAAAAAAAAAAAAAAAAAAAAAAAAAAAAAAAAAAAAAAAAAAAAAAAAAAAAAAAAAAAAAAAAAAAAAAAAAAAAAAAAAAAAAAAAAAAAAAAAAAAAAAAAAAAAAAAAAAAAAAAAAAAAAAAAAAAAAAAAAAAAAAAAAAAAAAAAAAAAAAAAAAAAAAAAAAAAAAAAAAAAAAAAAAAAAAAAAAAAAAAAAAAAAAAAAAAAAAAAAAAAAAAAAAAAAAAAAAAAAAAAAAAAAAAAAAAAAAAAAAAAAAAAAAAAAAAAAAAAAAAAAAAAAAAAAAAAAAAAAAAAAAAAAAAAAAAAAAAAAAAAAAAAAAAAAAAAAAAAAAAAAAAAAAAAAAAAAAAAAAAAAAAAAAAAAAAAAAAAAAAAAAAAAAAAAAAAAAAAAAAAAAAAAAAAAAAAAAAAAAAAAAAAAAAAAAAAAAAAAAAAAAAAAAAAAAAAAAAAAAAAAAAAAAAAAAAAAAAAAAAAAAAAAAAAAAAAAAAAAAAAAAAAAAAAAAAAAAAAAAAAAAAAAAAAAAAAAAAAAAAAAAAAAAAAAAAAAAAAAAAAAAAAAAAAAAAAAAAAAAAAAAAAAAAAAAAAAAAAAAAAAAAAAAAAAAAAAAAAAAAAAAAAAAAAAAAAAAAAAAAAAAAAAAAAAAAAAAAAAAAAAAAAAAAAAAAAAAAAAAAAAAAAAAAAAAAAAAAAAAAAAAAAAAAAAAAAAAAAAAAAAAAAAAAAAAAAAAAAAAAAAAAAAAAAAAAAAAAAAAAAAAAAAAAAAAAAAAAAAAAAAAAAAAAAAAAAAAAAAAAAAAAAAAAAAAAAAAAAAAAAAAAAAAAAAAAAAAAAAAAAAAAAAAAAAAAAAAAAAAAAAAAAAAAAAAAAAAAAAAAAAAAAAAAAAAAAAAAAAAAAAAAAAAAAAAAAAAAAAAAAAAAAAAAAAAAAAAAAAAAAAAAAAAAAAAAAAAAAAAAAAAAAAAAAAAAAAAAAAAAAAAAAAAAAAAAAAAAAAAAAAAAAAAAAAAAAAAAAAAAAAAAAAAAAAAAAAAAAAAAAAAAAAAAAAAAAAAAAAAAAAAAAAAAAAAAAAAAAAAAAAAAAAAAAAAAAAAAAAAAAAAAAAAAAAAAAAAAAAAAAAAAAAAAAAAAAAAAAAAAAAAAAAAAAAAAAAAAAAAAAAAAAAAAAAAAAAAAAAAAAAAAAAAAAAAAAAAAAAAAAAAAAAAAAAAAAAAAAAAAAAAAAAAAAAAAAAAAAAAAAAAAAAAAAAAAAAAAAAAAAAAAAAAAAAAAAAAAAAAAAAAAAAAAAAAAAAAAAAAAAAAAAAAAAAAAAAAAAAAAAAAAAAAAAAAAAAAAAAAAAAAAAAAAAAAAAAAAAAAAAAAAAAAAAAAAAAAAAAAAAAAAAAAAAAAAAAAAAAAAAAAAAAAAAAAAAAAAAAAAAAAAAAAAAAAAAAAAAAAAAAAAAAAAAAAAAAAAAAAAAAAAAAAAAAAAAAAAAAAAAAAAAAAAAAAAAAAAAAAAAAAAAAAAAAAAAAAAAAAAAAAAAAAAAAAAAAAAAAAAAAAAAAAAAAAAAAAAAAAAAAAAAAAAAAAAAAAAAAAAAAAAAAAAAAAAAAAAAAAAAAAAAAAAAAAAAAAAAAAAAAAAAAAAAAAAAAAAAAAAAAAAAAAAAAAAAAAAAAAAAAAAAAAAAAAAAAAAAAAAAAAAAAAAAAAAAAAAAAAAAAAAAAAAAAAAAAAAAAAAAAAAAAAAAAAAAAAAAAAAAAAAAAAAAAAAAAAAAAAAAAAAAAAAAAAAAAAAAAAAAAAAAAAAAAAAAAAAAAAAAAAAAAAAAAAAAAAAAAAAAAAAAAAAAAAAAAAAAAAAAAAAAAAAAAAAAAAAAAAAAAAAAAAAAAAAAAAAAAAAAAAAAAAAAAAAAAAAAAAAAAAAAAAAAAAAAAAAAAAAAAAAAAAAAAAAAAAAAAAAAAAAAAAAAAAAAAAAAAAAAAAAAAAAAAAAAAAAAAAAAAAAAAAAAAAAAAAAAAAAAAAAAAAAAAAAAAAAAAAAAAAAAAAAAAAAAAAAAAAAAAAAAAAAAAAAAAAAAAAAAAAAAAAAAAAAAAAAAAAAAAAAAAAAAAAAAAAAAAAAAAAAAAAAAAAAAAAAAAAAAAAAAAAAAAAAAAAAAAAAAAAAAAAAAAAAAAAAAAAAAAAAAAAAAAAAAAAAAAAAAAAAAAAAAAAAAAAAAAAAAAAAAAAAAAAAAAAAAAAAAAAAAAAAAAAAAAAAAAAAAAAAAAAAAAAAAAAAAAAAAAAAAAAAAAAAAAAAAAAAAAAAAAAAAAAAAAAAAAAAAAAAAPZYQJZ6CSB068kAaW+wJLMAl1vwwm/O5T30HPMEd23iejt3M6mCSK4vQfxUL+umm2JSyz28L/Xd42ptu6OJ+wTe5jo=</c2pa:manifest></metadata>

  <defs>
    <marker id="ah" markerWidth="7" markerHeight="7" refX="5.5" refY="3" orient="auto">
      <path d="M0,0.4 L6,3 L0,5.6 z" fill="#7a7a7a"/>
    </marker>
    <marker id="ahs" markerWidth="6" markerHeight="6" refX="4.8" refY="2.6" orient="auto">
      <path d="M0,0.3 L5,2.6 L0,4.9 z" fill="#9a9a9a"/>
    </marker>
    <pattern id="ret" patternUnits="userSpaceOnUse" width="5" height="5" patternTransform="rotate(45)">
      <rect width="5" height="5" fill="#ffffff"/>
      <line x1="0" y1="0" x2="0" y2="5" stroke="#a8a8a8" stroke-width="1.6"/>
    </pattern>
  </defs>

  <rect width="1000" height="742" fill="#ffffff"/>

  <!-- ================= PANEL A : ARCHITECTURE ================= -->
  <text x="18" y="40" font-size="14" font-weight="bold" fill="#1a1a1a">a</text>
  <text x="40" y="40" font-size="11.5" font-weight="bold" fill="#1a1a1a">HAMLET architecture</text>

  <!-- 1 INPUT -->
  <rect x="110" y="58" width="470" height="48" rx="10" fill="#f2f2f2" stroke="#8a8a8a" stroke-width="1"/>
  <rect x="120" y="64" width="15" height="15" rx="2" fill="#3a3a3a"/>
  <text x="127.5" y="75.5" font-size="9.5" font-weight="bold" fill="#ffffff" text-anchor="middle">1</text>
  <text x="143" y="76" font-size="10.5" font-weight="bold" fill="#1a1a1a">Input context</text>
  <rect x="245" y="63" width="108" height="17" rx="2" fill="#ffffff" stroke="#b5b5b5" stroke-width="0.8"/>
  <text x="299" y="75" font-size="8" fill="#333333" text-anchor="middle">abstract + methods</text>
  <rect x="361" y="63" width="130" height="17" rx="2" fill="#ffffff" stroke="#b5b5b5" stroke-width="0.8"/>
  <text x="426" y="75" font-size="8" fill="#333333" text-anchor="middle">PRIDE project descriptor</text>
  <text x="120" y="97" font-size="8" fill="#7a7a7a">Remaining manuscript sections excluded: cross-study comparison degrades extraction.</text>
  <line x1="345" y1="106" x2="345" y2="126" stroke="#7a7a7a" stroke-width="1" marker-end="url(#ah)"/>

  <!-- 2 EXTRACTION GROUP -->
  <rect x="100" y="128" width="490" height="148" rx="3" fill="#fbfbfb" stroke="#8a8a8a" stroke-width="1"/>
  <rect x="110" y="136" width="15" height="15" rx="2" fill="#3a3a3a"/>
  <text x="117.5" y="147.5" font-size="9.5" font-weight="bold" fill="#ffffff" text-anchor="middle">2</text>
  <text x="133" y="148" font-size="10.5" font-weight="bold" fill="#1a1a1a">Specialised extraction</text>
  <text x="580" y="148" font-size="8" fill="#7a7a7a" text-anchor="end">DocETL · 38 fields · multi-value</text>

  <!-- fan-out -->
  <line x1="345" y1="154" x2="345" y2="160" stroke="#9a9a9a" stroke-width="0.9"/>
  <path d="M184,160 L506,160" stroke="#9a9a9a" stroke-width="0.9" fill="none"/>
  <line x1="184" y1="160" x2="184" y2="170" stroke="#9a9a9a" stroke-width="0.9" marker-end="url(#ahs)"/>
  <line x1="345" y1="160" x2="345" y2="170" stroke="#9a9a9a" stroke-width="0.9" marker-end="url(#ahs)"/>
  <line x1="506" y1="160" x2="506" y2="170" stroke="#9a9a9a" stroke-width="0.9" marker-end="url(#ahs)"/>

  <!-- agent boxes -->
  <rect x="112" y="174" width="144" height="56" rx="2" fill="#ffffff" stroke="#4A7FA8" stroke-width="1.3"/>
  <rect x="112" y="174" width="144" height="16" rx="0" fill="#4A7FA8"/>
  <text x="184" y="185.5" font-size="8.5" font-weight="bold" fill="#ffffff" text-anchor="middle">biological</text>
  <text x="184" y="202" font-size="7.8" fill="#444444" text-anchor="middle">organism · tissue · cell type</text>
  <text x="184" y="213" font-size="7.8" fill="#444444" text-anchor="middle">cell line · disease state</text>
  <text x="184" y="224" font-size="7.8" fill="#444444" text-anchor="middle">sex · age · strain</text>

  <rect x="273" y="174" width="144" height="56" rx="2" fill="#ffffff" stroke="#3E8C6A" stroke-width="1.3"/>
  <rect x="273" y="174" width="144" height="16" rx="0" fill="#3E8C6A"/>
  <text x="345" y="185.5" font-size="8.5" font-weight="bold" fill="#ffffff" text-anchor="middle">technical</text>
  <text x="345" y="202" font-size="7.8" fill="#444444" text-anchor="middle">instrument · acquisition</text>
  <text x="345" y="213" font-size="7.8" fill="#444444" text-anchor="middle">cleavage agent · labelling</text>
  <text x="345" y="224" font-size="7.8" fill="#444444" text-anchor="middle">enrichment · separation</text>

  <rect x="434" y="174" width="144" height="56" rx="2" fill="#ffffff" stroke="#D18A4E" stroke-width="1.3"/>
  <rect x="434" y="174" width="144" height="16" rx="0" fill="#D18A4E"/>
  <text x="506" y="185.5" font-size="8.5" font-weight="bold" fill="#ffffff" text-anchor="middle">experimental design</text>
  <text x="506" y="202" font-size="7.8" fill="#444444" text-anchor="middle">samples · replicates</text>
  <text x="506" y="213" font-size="7.8" fill="#444444" text-anchor="middle">fractions · factor value</text>
  <text x="506" y="224" font-size="7.8" fill="#444444" text-anchor="middle">technical replicates</text>

  <!-- constraint band -->
  <rect x="112" y="240" width="466" height="26" rx="2" fill="#f0f0f0" stroke="#d2d2d2" stroke-width="0.8"/>
  <text x="345" y="251" font-size="8" fill="#333333" text-anchor="middle">no reasoning · inference limited to what the text states · every value paired with its evidence span</text>
  <text x="345" y="261.5" font-size="8" fill="#333333" text-anchor="middle">absent information recorded as “unknown” · sample, replicate and fraction counts never defaulted to one</text>

  <!-- fan-in -->
  <line x1="345" y1="276" x2="345" y2="296" stroke="#7a7a7a" stroke-width="1" marker-end="url(#ah)"/>

  <!-- 3 STRUCTURAL VALIDATION -->
  <rect x="110" y="298" width="470" height="42" rx="2" fill="#ffffff" stroke="#8a8a8a" stroke-width="1"/>
  <rect x="120" y="305" width="15" height="15" rx="2" fill="#3a3a3a"/>
  <text x="127.5" y="316.5" font-size="9.5" font-weight="bold" fill="#ffffff" text-anchor="middle">3</text>
  <text x="143" y="317" font-size="10.5" font-weight="bold" fill="#1a1a1a">Structural validation</text>
  <text x="143" y="331" font-size="8" fill="#555555">schema conformity and evidence presence; unknowns re-queried</text>
  <path d="M580,310 L604,310 L604,332 L580,332" fill="none" stroke="#9a9a9a" stroke-width="0.9" marker-end="url(#ahs)"/>
  <text x="610" y="324" font-size="7.5" fill="#8a8a8a">≤ 2 retries</text>
  <line x1="345" y1="340" x2="345" y2="358" stroke="#7a7a7a" stroke-width="1" marker-end="url(#ah)"/>

  <!-- 4 GLEANING -->
  <rect x="110" y="360" width="470" height="42" rx="2" fill="#ffffff" stroke="#8a8a8a" stroke-width="1"/>
  <rect x="120" y="367" width="15" height="15" rx="2" fill="#3a3a3a"/>
  <text x="127.5" y="378.5" font-size="9.5" font-weight="bold" fill="#ffffff" text-anchor="middle">4</text>
  <text x="143" y="379" font-size="10.5" font-weight="bold" fill="#1a1a1a">Conditional gleaning</text>
  <text x="143" y="393" font-size="8" fill="#555555">populated field missing supporting evidence returned to its agent for repair</text>
  <path d="M580,372 L604,372 L604,394 L580,394" fill="none" stroke="#9a9a9a" stroke-width="0.9" marker-end="url(#ahs)"/>
  <text x="610" y="386" font-size="7.5" fill="#8a8a8a">≤ 2 rounds</text>
  <line x1="345" y1="402" x2="345" y2="420" stroke="#7a7a7a" stroke-width="1" marker-end="url(#ah)"/>

  <!-- 5 ONTOLOGY NORMALISATION -->
  <rect x="110" y="422" width="470" height="78" rx="2" fill="#ffffff" stroke="#8a8a8a" stroke-width="1"/>
  <rect x="120" y="429" width="15" height="15" rx="2" fill="#3a3a3a"/>
  <text x="127.5" y="440.5" font-size="9.5" font-weight="bold" fill="#ffffff" text-anchor="middle">5</text>
  <text x="143" y="441" font-size="10.5" font-weight="bold" fill="#1a1a1a">Ontology normalisation</text>
  <text x="570" y="441" font-size="8" fill="#7a7a7a" text-anchor="end">SapBERT + FAISS · 19 ontologies</text>
  <text x="120" y="456" font-size="7.8" fill="#7a7a7a">five-tier matcher, first accepted tier retained</text>

  <rect x="120" y="462" width="80" height="18" rx="2" fill="#2f4f2f" />
  <text x="160" y="474" font-size="7.4" fill="#ffffff" text-anchor="middle">exact string</text>
  <rect x="204" y="462" width="80" height="18" rx="2" fill="#3f6b45"/>
  <text x="244" y="474" font-size="7.4" fill="#ffffff" text-anchor="middle">normalised</text>
  <rect x="288" y="462" width="80" height="18" rx="2" fill="#5c8a5c"/>
  <text x="328" y="474" font-size="7.4" fill="#ffffff" text-anchor="middle">ontology term</text>
  <rect x="372" y="462" width="80" height="18" rx="2" fill="#87ab87"/>
  <text x="412" y="474" font-size="7.4" fill="#ffffff" text-anchor="middle">hierarchy</text>
  <rect x="456" y="462" width="80" height="18" rx="2" fill="#b9cdb9"/>
  <text x="496" y="474" font-size="7.4" fill="#2b2b2b" text-anchor="middle">SapBERT ≥ 0.70</text>
  <rect x="540" y="462" width="30" height="18" rx="2" fill="#e0e0e0"/>
  <text x="555" y="474" font-size="7.4" fill="#5a5a5a" text-anchor="middle">rej.</text>
  <text x="120" y="492" font-size="7.8" fill="#555555">original value retained alongside ontology ID, preferred label and matching tier; ambiguous mappings flagged</text>
  <line x1="345" y1="500" x2="345" y2="518" stroke="#7a7a7a" stroke-width="1" marker-end="url(#ah)"/>

  <!-- 6 GROUNDING + QC -->
  <rect x="110" y="520" width="470" height="70" rx="2" fill="#ffffff" stroke="#8a8a8a" stroke-width="1"/>
  <rect x="120" y="527" width="15" height="15" rx="2" fill="#3a3a3a"/>
  <text x="127.5" y="538.5" font-size="9.5" font-weight="bold" fill="#ffffff" text-anchor="middle">6</text>
  <text x="143" y="539" font-size="10.5" font-weight="bold" fill="#1a1a1a">Evidence grounding and quality control</text>
  <rect x="120" y="548" width="108" height="20" rx="2" fill="#f5f5f5" stroke="#cccccc" stroke-width="0.8"/>
  <text x="174" y="561" font-size="7.6" fill="#333333" text-anchor="middle">evidence located in text</text>
  <rect x="234" y="548" width="108" height="20" rx="2" fill="#f5f5f5" stroke="#cccccc" stroke-width="0.8"/>
  <text x="288" y="561" font-size="7.6" fill="#333333" text-anchor="middle">cross-field consistency</text>
  <rect x="348" y="548" width="108" height="20" rx="2" fill="#f5f5f5" stroke="#cccccc" stroke-width="0.8"/>
  <text x="402" y="561" font-size="7.6" fill="#333333" text-anchor="middle">negation (NegEx)</text>
  <rect x="462" y="548" width="108" height="20" rx="2" fill="#f5f5f5" stroke="#cccccc" stroke-width="0.8"/>
  <text x="516" y="561" font-size="7.6" fill="#333333" text-anchor="middle">numeric agreement</text>
  <text x="120" y="582" font-size="7.8" fill="#555555">checks flag values for review rather than establish error; flagged values retained with machine-readable diagnostics</text>
  <line x1="345" y1="590" x2="345" y2="608" stroke="#7a7a7a" stroke-width="1" marker-end="url(#ah)"/>

  <!-- 7 OUTPUT -->
  <rect x="110" y="610" width="470" height="54" rx="10" fill="#f2f2f2" stroke="#3a3a3a" stroke-width="1.2"/>
  <rect x="120" y="617" width="15" height="15" rx="2" fill="#3a3a3a"/>
  <text x="127.5" y="628.5" font-size="9.5" font-weight="bold" fill="#ffffff" text-anchor="middle">7</text>
  <text x="143" y="629" font-size="10.5" font-weight="bold" fill="#1a1a1a">SDRF-Proteomics output with provenance</text>
  <text x="120" y="645" font-size="7.8" fill="#333333">value · evidence span · ontology ID and preferred label · matching tier · QC flags · raw and normalised JSON</text>
  <text x="120" y="657" font-size="7.8" fill="#7a7a7a">linked to the deposited raw files at project level</text>

  <!-- ================= PANEL B : ABLATION ================= -->
  <text x="672" y="40" font-size="14" font-weight="bold" fill="#1a1a1a">b</text>
  <text x="694" y="40" font-size="11.5" font-weight="bold" fill="#1a1a1a">Cumulative ablation</text>
  <text x="672" y="56" font-size="8" fill="#7a7a7a">Each arm adds one component of a and retains</text>
  <text x="672" y="67" font-size="8" fill="#7a7a7a">every component of the arm before it.</text>

  <!-- rotated column headers -->
  <text x="717" y="152" font-size="7.8" fill="#333333" transform="rotate(-45 717 152)">master prompt</text>
  <text x="758" y="152" font-size="7.8" fill="#333333" transform="rotate(-45 758 152)">three agents</text>
  <text x="799" y="152" font-size="7.8" fill="#333333" transform="rotate(-45 799 152)">definitions, rules</text>
  <text x="840" y="152" font-size="7.8" fill="#333333" transform="rotate(-45 840 152)">validation</text>
  <text x="881" y="152" font-size="7.8" fill="#333333" transform="rotate(-45 881 152)">gleaning</text>
  <text x="922" y="152" font-size="7.8" fill="#333333" transform="rotate(-45 922 152)">ontology norm.</text>

  <!-- S0 -->
  <text x="690" y="172" font-size="9" font-weight="bold" fill="#1a1a1a" text-anchor="end">S0</text>
  <rect x="698" y="160" width="38" height="16" rx="2" fill="#333333"/>
  <rect x="739" y="160" width="38" height="16" rx="2" fill="#ebebeb"/>
  <rect x="780" y="160" width="38" height="16" rx="2" fill="#ebebeb"/>
  <rect x="821" y="160" width="38" height="16" rx="2" fill="#ebebeb"/>
  <rect x="862" y="160" width="38" height="16" rx="2" fill="#ebebeb"/>
  <rect x="903" y="160" width="38" height="16" rx="2" fill="#ebebeb"/>
  <!-- S1 -->
  <text x="690" y="192" font-size="9" font-weight="bold" fill="#1a1a1a" text-anchor="end">S1</text>
  <rect x="698" y="180" width="38" height="16" rx="2" fill="#ebebeb"/>
  <rect x="739" y="180" width="38" height="16" rx="2" fill="#333333"/>
  <rect x="780" y="180" width="38" height="16" rx="2" fill="#ebebeb"/>
  <rect x="821" y="180" width="38" height="16" rx="2" fill="#ebebeb"/>
  <rect x="862" y="180" width="38" height="16" rx="2" fill="#ebebeb"/>
  <rect x="903" y="180" width="38" height="16" rx="2" fill="#ebebeb"/>
  <!-- S2 -->
  <text x="690" y="212" font-size="9" font-weight="bold" fill="#1a1a1a" text-anchor="end">S2</text>
  <rect x="698" y="200" width="38" height="16" rx="2" fill="#ebebeb"/>
  <rect x="739" y="200" width="38" height="16" rx="2" fill="#333333"/>
  <rect x="780" y="200" width="38" height="16" rx="2" fill="#333333"/>
  <rect x="821" y="200" width="38" height="16" rx="2" fill="#ebebeb"/>
  <rect x="862" y="200" width="38" height="16" rx="2" fill="#ebebeb"/>
  <rect x="903" y="200" width="38" height="16" rx="2" fill="#ebebeb"/>
  <!-- S3 -->
  <text x="690" y="232" font-size="9" font-weight="bold" fill="#1a1a1a" text-anchor="end">S3</text>
  <rect x="698" y="220" width="38" height="16" rx="2" fill="#ebebeb"/>
  <rect x="739" y="220" width="38" height="16" rx="2" fill="#333333"/>
  <rect x="780" y="220" width="38" height="16" rx="2" fill="#333333"/>
  <rect x="821" y="220" width="38" height="16" rx="2" fill="#333333"/>
  <rect x="862" y="220" width="38" height="16" rx="2" fill="#ebebeb"/>
  <rect x="903" y="220" width="38" height="16" rx="2" fill="#ebebeb"/>
  <!-- S4 -->
  <text x="690" y="252" font-size="9" font-weight="bold" fill="#1a1a1a" text-anchor="end">S4</text>
  <rect x="698" y="240" width="38" height="16" rx="2" fill="#ebebeb"/>
  <rect x="739" y="240" width="38" height="16" rx="2" fill="#333333"/>
  <rect x="780" y="240" width="38" height="16" rx="2" fill="#333333"/>
  <rect x="821" y="240" width="38" height="16" rx="2" fill="#333333"/>
  <rect x="862" y="240" width="38" height="16" rx="2" fill="#333333"/>
  <rect x="903" y="240" width="38" height="16" rx="2" fill="#ebebeb"/>
  <!-- S5 -->
  <text x="690" y="272" font-size="9" font-weight="bold" fill="#1a1a1a" text-anchor="end">S5</text>
  <rect x="698" y="260" width="38" height="16" rx="2" fill="#ebebeb"/>
  <rect x="739" y="260" width="38" height="16" rx="2" fill="#333333"/>
  <rect x="780" y="260" width="38" height="16" rx="2" fill="#333333"/>
  <rect x="821" y="260" width="38" height="16" rx="2" fill="#333333"/>
  <rect x="862" y="260" width="38" height="16" rx="2" fill="#333333"/>
  <rect x="903" y="260" width="38" height="16" rx="2" fill="#333333"/>

  <!-- QC retained row -->
  <line x1="698" y1="284" x2="941" y2="284" stroke="#dcdcdc" stroke-width="0.8"/>
  <text x="690" y="300" font-size="7.6" fill="#7a7a7a" text-anchor="end">QC</text>
  <rect x="698" y="290" width="38" height="14" rx="2" fill="#ebebeb"/>
  <rect x="739" y="290" width="38" height="14" rx="2" fill="url(#ret)" stroke="#d5d5d5" stroke-width="0.6"/>
  <rect x="780" y="290" width="38" height="14" rx="2" fill="url(#ret)" stroke="#d5d5d5" stroke-width="0.6"/>
  <rect x="821" y="290" width="38" height="14" rx="2" fill="url(#ret)" stroke="#d5d5d5" stroke-width="0.6"/>
  <rect x="862" y="290" width="38" height="14" rx="2" fill="url(#ret)" stroke="#d5d5d5" stroke-width="0.6"/>
  <rect x="903" y="290" width="38" height="14" rx="2" fill="url(#ret)" stroke="#d5d5d5" stroke-width="0.6"/>

  <!-- panel b legend -->
  <rect x="672" y="324" width="11" height="11" rx="2" fill="#333333"/>
  <text x="689" y="333" font-size="7.8" fill="#4a4a4a">component active</text>
  <rect x="672" y="341" width="11" height="11" rx="2" fill="#ebebeb"/>
  <text x="689" y="350" font-size="7.8" fill="#4a4a4a">absent</text>
  <rect x="672" y="358" width="11" height="11" rx="2" fill="url(#ret)" stroke="#d5d5d5" stroke-width="0.6"/>
  <text x="689" y="367" font-size="7.8" fill="#4a4a4a">retained, not independently ablated</text>

  <!-- panel b notes -->
  <text x="672" y="392" font-size="7.8" fill="#767676">S0 is a separate baseline architecture rather</text>
  <text x="672" y="403" font-size="7.8" fill="#767676">than a reduced form of the agent pipeline.</text>
  <text x="672" y="419" font-size="7.8" fill="#767676">The ablation uses manuscript text alone; PRIDE</text>
  <text x="672" y="430" font-size="7.8" fill="#767676">descriptors are excluded from every arm.</text>
  <text x="672" y="446" font-size="7.8" fill="#767676">Every arm is scored against the SDRF gold</text>
  <text x="672" y="457" font-size="7.8" fill="#767676">standard by weighted F1, Lin IC and matching</text>
  <text x="672" y="468" font-size="7.8" fill="#767676">tier (panels c–g).</text>

</svg>
